<svg width="20" height="20" viewBox="0 0 20 20" fill="none" xmlns="http://www.w3.org/2000/svg">
<path fill-rule="evenodd" clip-rule="evenodd" d="M19.3604 1.1834C19.4848 1.30784 19.5757 1.46176 19.6245 1.6308C19.6733 1.79983 19.6785 1.97848 19.6396 2.15007L19.3094 3.61049C18.9182 5.33648 18.0464 6.91648 16.7948 8.16778L11.9573 13.0053C13.0271 14.3303 13.374 15.5886 13.1031 16.7886C12.8209 18.0386 11.8948 18.9615 11.3198 19.5355L11.2573 19.598C11.1453 19.7098 11.0094 19.7946 10.8598 19.846C10.7101 19.8974 10.5507 19.9141 10.3937 19.8947C10.2367 19.8753 10.0861 19.8204 9.95347 19.7342C9.82083 19.6479 9.70957 19.5326 9.62814 19.3969L7.5521 15.9334C7.50836 15.8606 7.45589 15.7935 7.39585 15.7334L4.71877 13.0584L3.9271 12.5834L7.53023 8.58028C7.53263 8.58205 7.53507 8.58378 7.53752 8.58549L12.375 3.75007C13.6266 2.49835 15.207 1.62654 16.9334 1.23549L18.3938 0.904238C18.5654 0.865477 18.7441 0.870847 18.9132 0.919847C19.0822 0.968847 19.2361 1.05988 19.3604 1.18445V1.1834ZM6.66877 7.98132C5.65939 7.39278 4.6896 7.22924 3.75523 7.43965C2.50523 7.72299 1.58231 8.64799 1.00835 9.22403L0.945852 9.28549C0.834055 9.39745 0.749231 9.53341 0.69782 9.68304C0.646409 9.83268 0.629761 9.99206 0.649138 10.1491C0.668516 10.3061 0.723411 10.4567 0.809656 10.5893C0.895902 10.722 1.01123 10.8332 1.14689 10.9147L3.01773 12.0376L6.66877 7.98132Z" fill="#0A415C"/>
</svg>
